<svg width="64" height="64" viewBox="0 0 64 64" fill="none" xmlns="http://www.w3.org/2000/svg">
<path d="M52.3061 53.6684C52.0791 53.6684 51.8572 53.58 51.6925 53.4153L48.9695 50.6905C48.6315 50.3525 48.6315 49.803 48.9695 49.465C49.3075 49.127 49.8569 49.127 50.1949 49.465L51.8364 51.1065L53.8367 43.0968L45.8269 45.0988L47.4684 46.742C47.8064 47.08 47.8064 47.6294 47.4684 47.9674C47.1304 48.3054 46.5809 48.3054 46.2429 47.9674L43.5199 45.2426C43.298 45.0225 43.2131 44.7001 43.298 44.3985C43.3812 44.0986 43.6204 43.8646 43.922 43.7901L54.8177 41.067C55.1159 40.9908 55.4279 41.0809 55.6411 41.2941C55.856 41.509 55.9427 41.821 55.8699 42.1174L53.1468 53.0114C53.0705 53.3148 52.8365 53.554 52.5367 53.6372C52.4621 53.658 52.3841 53.6684 52.3061 53.6684Z" fill="#E82C00"/>
<path d="M31.9995 54.5334C31.5211 54.5334 31.1328 54.1451 31.1328 53.6667C31.1328 53.1883 31.5211 52.8 31.9995 52.8C37.4109 52.8 42.5381 50.7322 46.4329 46.9778C46.7761 46.6467 47.3256 46.6554 47.6584 47.0003C47.9895 47.3452 47.9808 47.8947 47.6341 48.2258C43.4152 52.2939 37.8633 54.5334 31.9995 54.5334Z" fill="#E82C00"/>
<path d="M32 57.9999C17.6636 57.9999 6 46.3363 6 31.9999C6 31.3967 6.0208 30.8005 6.06067 30.2077C6.09533 29.7293 6.50787 29.3722 6.98453 29.4017C7.4612 29.4346 7.82173 29.8471 7.79053 30.3255C7.75413 30.8785 7.73333 31.4366 7.73333 31.9999C7.73333 45.3813 18.6187 56.2666 32 56.2666C38.2608 56.2666 44.2044 53.8885 48.7353 49.5725C49.082 49.2431 49.6297 49.2535 49.9608 49.6019C50.2901 49.9486 50.278 50.4963 49.9296 50.8274C45.0763 55.4519 38.708 57.9999 32 57.9999Z" fill="#E82C00"/>
<path d="M8.97123 22.9606C8.74416 22.9606 8.52229 22.8705 8.35763 22.7076C8.14269 22.4926 8.05603 22.1806 8.12883 21.8842L10.8536 10.9885C10.9299 10.6852 11.1639 10.446 11.4638 10.3628C11.7636 10.2813 12.0878 10.3628 12.3079 10.5846L15.031 13.3112C15.369 13.6492 15.369 14.1986 15.031 14.5366C14.693 14.8746 14.1435 14.8746 13.8055 14.5366L12.164 12.8952L10.162 20.9032L18.1718 18.9012L16.5303 17.258C16.1923 16.92 16.1923 16.3705 16.5303 16.0325C16.8683 15.6945 17.4178 15.6945 17.7558 16.0325L20.4806 18.7573C20.7007 18.9792 20.7856 19.3016 20.7007 19.6032C20.6175 19.903 20.3783 20.137 20.0767 20.2116L9.18096 22.9346C9.11163 22.952 9.04056 22.9606 8.97123 22.9606Z" fill="#E82C00"/>
<path d="M16.9647 17.2649C16.7376 17.2649 16.5106 17.1765 16.3407 16.9997C16.0079 16.6547 16.0183 16.107 16.3632 15.7742C20.5839 11.7061 26.1358 9.46661 31.9996 9.46661C32.478 9.46661 32.8663 9.85488 32.8663 10.3333C32.8663 10.8117 32.478 11.1999 31.9996 11.1999C26.5882 11.1999 21.461 13.2678 17.5662 17.0222C17.398 17.1851 17.1814 17.2649 16.9647 17.2649Z" fill="#E82C00"/>
<path d="M57.0765 34.5965C57.0557 34.5965 57.0367 34.5965 57.0159 34.5948C56.5392 34.5619 56.1787 34.1493 56.2099 33.6709C56.2463 33.118 56.2671 32.5616 56.2671 32C56.2671 18.6187 45.3817 7.73333 32.0004 7.73333C25.7396 7.73333 19.796 10.1115 15.2651 14.4275C14.9184 14.7568 14.3707 14.7464 14.0396 14.398C13.7103 14.0513 13.7224 13.5036 14.0708 13.1725C18.9241 8.548 25.2924 6 32.0004 6C46.3368 6 58.0004 17.6636 58.0004 32C58.0004 32.6015 57.9796 33.1977 57.9397 33.7888C57.9068 34.2447 57.5272 34.5965 57.0765 34.5965Z" fill="#E82C00"/>
<path d="M32.0005 44.1334C25.3116 44.1334 19.8672 38.6907 19.8672 32C19.8672 25.3094 25.3116 19.8667 32.0005 19.8667C34.3457 19.8667 36.6164 20.5358 38.5733 21.7994C38.9737 22.0594 39.0899 22.595 38.8299 22.9971C38.5699 23.401 38.0308 23.5136 37.6321 23.2536C35.956 22.172 34.0095 21.6 32.0005 21.6C26.2649 21.6 21.6005 26.2644 21.6005 32C21.6005 37.7356 26.2649 42.4 32.0005 42.4C37.7361 42.4 42.4005 37.7356 42.4005 32C42.4005 30.8872 42.2255 29.7935 41.8823 28.7466C41.7315 28.2924 41.9793 27.8019 42.4335 27.6528C42.8859 27.5038 43.3799 27.7516 43.5272 28.2058C43.9311 29.4278 44.1339 30.7035 44.1339 32C44.1339 38.6907 38.6895 44.1334 32.0005 44.1334Z" fill="#E82C00"/>
<path d="M31.134 36.6782C31.127 36.6782 31.1201 36.6782 31.1132 36.6782C30.8618 36.6713 30.6278 36.5586 30.4666 36.3662L26.1333 31.1662C25.8282 30.797 25.8785 30.251 26.2442 29.9442C26.6134 29.6391 27.1577 29.6894 27.4662 30.0551L31.1634 34.4942L41.9361 22.5949C42.262 22.2413 42.8097 22.2205 43.1598 22.5411C43.5117 22.8653 43.536 23.413 43.2118 23.7666L31.7718 36.3974C31.6072 36.5777 31.3784 36.6782 31.134 36.6782Z" fill="#E82C00"/>
<path d="M28.5346 54.5334C29.0133 54.5334 29.4013 54.1454 29.4013 53.6667C29.4013 53.1881 29.0133 52.8 28.5346 52.8C28.056 52.8 27.668 53.1881 27.668 53.6667C27.668 54.1454 28.056 54.5334 28.5346 54.5334Z" fill="#E82C00"/>
<path d="M35.4663 11.1999C35.9449 11.1999 36.3329 10.8119 36.3329 10.3332C36.3329 9.85457 35.9449 9.46655 35.4663 9.46655C34.9876 9.46655 34.5996 9.85457 34.5996 10.3332C34.5996 10.8119 34.9876 11.1999 35.4663 11.1999Z" fill="#E82C00"/>
</svg>
